<?xml version="1.0" standalone="no"?>
<!DOCTYPE svg PUBLIC "-//W3C//DTD SVG 20010904//EN"
 "http://www.w3.org/TR/2001/REC-SVG-20010904/DTD/svg10.dtd">
<svg version="1.0" xmlns="http://www.w3.org/2000/svg"
 width="700.000000pt" height="700.000000pt" viewBox="0 0 700.000000 700.000000"
 preserveAspectRatio="xMidYMid meet">
<metadata>
Created by potrace 1.11, written by Peter Selinger 2001-2013
</metadata>
<g transform="translate(0.000000,700.000000) scale(0.100000,-0.100000)"
fill="#000000" stroke="none">
<path d="M1783 6983 c5 -16 11 -42 22 -93 2 -8 31 -127 65 -265 33 -137 74
-304 90 -370 16 -66 65 -268 110 -450 44 -181 82 -338 84 -347 4 -17 12 -15
-519 -143 -248 -60 -553 -134 -737 -180 -80 -20 -154 -37 -165 -40 -10 -2 -92
-22 -183 -45 -91 -22 -172 -42 -180 -43 -8 -2 -95 -23 -192 -46 l-178 -43 0
-225 c0 -209 1 -224 18 -219 9 3 30 7 45 10 16 3 43 10 60 15 18 6 43 12 57
15 14 2 138 32 275 66 475 116 616 150 763 186 81 19 239 58 352 85 469 115
646 157 670 161 18 2 25 -2 28 -17 2 -11 35 -148 74 -305 38 -157 72 -296 74
-309 3 -14 21 -88 41 -165 66 -265 66 -241 2 -256 -30 -7 -179 -43 -332 -81
-153 -38 -289 -71 -302 -73 -14 -3 -69 -16 -122 -30 -54 -14 -109 -27 -123
-30 -14 -2 -137 -32 -275 -66 -137 -34 -389 -95 -560 -137 -170 -41 -407 -99
-525 -128 l-215 -53 -3 -245 -2 -245 192 48 c192 48 784 192 803 196 6 1 75
18 155 37 183 45 400 98 420 102 8 2 146 36 305 75 160 39 301 74 315 76 14 3
43 10 65 16 22 5 47 12 55 13 8 2 82 20 163 40 82 20 151 35 154 32 4 -5 45
-166 64 -256 5 -23 14 -62 20 -84 6 -23 13 -49 14 -57 2 -8 31 -125 64 -260
33 -135 78 -321 101 -415 22 -93 43 -177 45 -186 5 -13 -23 -23 -152 -54 -87
-22 -165 -40 -173 -42 -8 -1 -87 -20 -175 -42 -88 -22 -254 -63 -370 -91 -115
-28 -293 -72 -395 -96 -102 -25 -192 -47 -200 -49 -8 -2 -118 -29 -244 -59
-125 -31 -238 -58 -250 -60 -11 -2 -77 -18 -146 -36 -69 -17 -132 -33 -140
-35 -16 -3 -105 -25 -395 -95 -93 -23 -177 -43 -185 -45 -8 -2 -36 -9 -62 -15
l-48 -12 0 -253 0 -253 33 8 c69 16 298 73 428 105 74 19 146 36 160 39 13 2
143 34 289 70 146 35 333 81 415 101 83 20 206 50 275 67 69 16 132 31 140 33
8 2 53 13 100 25 47 12 92 23 101 25 8 2 74 17 145 35 197 48 548 134 757 184
103 25 193 46 201 46 8 0 17 -14 21 -33 7 -29 59 -247 190 -782 26 -104 71
-291 101 -415 30 -124 71 -291 90 -372 l36 -148 235 0 c219 0 234 1 229 18 -7
22 -66 260 -72 290 -3 13 -25 103 -49 200 -24 98 -53 215 -64 262 -40 169
-101 420 -160 660 -33 135 -76 310 -95 390 -37 154 -132 543 -246 1010 -148
610 -259 1064 -265 1090 -15 65 -61 253 -95 390 -23 91 -43 175 -46 187 -2 11
-43 178 -90 370 -84 344 -152 624 -159 653 -1 8 -22 92 -45 185 -23 94 -44
181 -46 195 -3 14 -11 48 -19 75 -8 28 -16 61 -19 75 -2 14 -30 129 -61 255
-31 127 -58 235 -59 240 -1 6 -27 110 -56 233 l-54 222 -234 0 c-217 0 -233
-1 -229 -17z"/>
<path d="M2328 6994 c-11 -10 4 -42 21 -47 19 -5 46 -114 32 -131 -13 -15 -1
-66 15 -66 12 0 19 -19 38 -99 3 -14 1 -30 -5 -37 -13 -16 -1 -64 16 -64 18 0
46 -120 32 -137 -12 -16 0 -63 16 -63 15 0 49 -128 36 -136 -15 -9 -10 -43 10
-61 24 -23 53 -127 39 -141 -14 -14 0 -72 16 -66 17 6 43 -113 29 -135 -10
-17 7 -77 19 -65 7 6 38 -93 38 -120 0 -9 -4 -16 -9 -16 -5 0 -5 -15 -2 -32 4
-18 13 -33 21 -33 18 0 48 -127 31 -133 -15 -5 -3 -53 19 -72 21 -18 45 -113
34 -132 -12 -19 -5 -51 15 -68 23 -20 48 -120 32 -129 -19 -12 -2 -68 22 -75
12 -3 18 -8 15 -12 -4 -3 -3 -16 1 -28 16 -41 23 -98 12 -91 -12 7 -14 -9 -5
-42 4 -13 12 -23 19 -23 17 0 47 -120 34 -136 -13 -16 -1 -64 16 -64 18 0 46
-120 33 -137 -12 -15 0 -54 19 -68 20 -15 44 -120 31 -133 -12 -12 0 -72 13
-69 10 2 42 -74 34 -81 -2 -2 0 -15 5 -27 6 -17 5 -25 -4 -27 -17 -4 -1 -68
18 -68 16 0 39 -99 31 -133 -8 -31 2 -67 17 -64 15 3 46 -125 32 -130 -17 -6
-3 -65 16 -70 20 -5 47 -114 33 -136 -11 -17 -4 -50 13 -64 21 -16 49 -124 35
-133 -15 -9 -2 -70 15 -70 7 0 18 -19 24 -42 6 -24 14 -51 16 -61 3 -10 1 -23
-4 -30 -14 -16 -3 -67 14 -67 7 0 18 -19 24 -42 6 -24 14 -51 16 -61 3 -10 1
-24 -6 -32 -14 -16 -3 -65 15 -65 11 0 27 -40 26 -65 0 -2 4 -19 10 -37 6 -22
5 -34 -2 -39 -17 -10 -1 -69 17 -62 8 3 14 0 14 -6 0 -15 0 -13 16 -73 10 -40
10 -54 2 -60 -15 -8 2 -65 17 -60 14 5 44 -120 33 -135 -14 -17 1 -76 17 -69
17 6 43 -120 27 -136 -12 -12 4 -69 20 -65 5 1 18 -28 28 -65 14 -53 15 -68 4
-72 -16 -6 -2 -62 14 -59 18 4 50 -131 34 -141 -14 -8 -3 -48 17 -66 24 -21
46 -116 32 -134 -13 -15 1 -66 18 -66 17 0 47 -125 33 -134 -13 -8 -2 -66 13
-66 21 0 53 -129 35 -140 -15 -9 -2 -60 15 -60 11 0 15 -12 26 -68 1 -4 5 -17
10 -30 5 -14 5 -29 -2 -40 -12 -20 5 -77 20 -67 14 8 41 -117 29 -132 -14 -17
0 -73 16 -67 15 6 49 -128 34 -134 -10 -5 -10 -43 1 -60 4 -8 12 -12 16 -10 8
3 19 -27 29 -77 2 -11 5 -24 7 -30 1 -5 -1 -18 -5 -28 -11 -24 2 -70 18 -64 8
3 16 -14 25 -54 6 -32 16 -59 22 -59 6 0 8 4 5 8 -3 5 -7 19 -10 33 -2 13 -7
36 -11 51 -6 25 -4 28 32 37 33 9 234 57 265 64 11 2 52 -122 44 -130 -2 -2
-16 -6 -32 -9 -16 -3 -51 -11 -79 -19 -27 -8 -66 -17 -85 -20 -66 -11 -42 -15
102 -15 79 0 147 2 150 5 11 12 -6 58 -23 62 -17 5 -24 20 -44 104 -5 18 -2
28 8 32 20 7 10 58 -12 64 -11 3 -23 26 -33 65 -14 52 -15 63 -3 72 19 15 8
66 -14 66 -24 0 -56 120 -36 136 19 14 5 70 -17 67 -10 -2 -19 16 -30 62 -13
57 -13 67 -1 73 18 10 7 62 -12 62 -12 0 -22 19 -31 55 -2 6 -7 25 -13 42 -8
27 -7 35 6 42 21 11 4 67 -19 63 -11 -1 -18 8 -21 30 -4 18 -9 48 -13 67 -5
23 -3 36 7 42 16 10 0 65 -19 62 -10 -2 -19 14 -26 54 -2 10 -7 31 -11 47 -5
18 -4 31 5 36 17 11 3 73 -15 66 -8 -3 -16 3 -18 12 -3 9 -11 39 -18 66 -10
38 -10 51 -1 54 14 4 16 41 3 61 -5 7 -13 11 -19 7 -9 -5 -15 10 -28 69 -1 6
-5 22 -9 36 -5 19 -2 28 9 32 12 5 13 12 5 37 -6 16 -17 30 -25 30 -7 0 -16
12 -20 28 -3 15 -10 42 -16 61 -8 27 -8 35 4 42 21 11 11 60 -13 66 -15 4 -25
25 -35 79 -1 6 -5 21 -8 32 -4 12 -1 22 7 25 20 8 9 58 -13 64 -25 7 -54 123
-35 138 16 13 8 65 -11 65 -7 0 -18 9 -24 20 -6 11 -8 20 -6 20 3 0 2 10 -3
23 -16 44 -22 79 -12 73 15 -10 22 9 15 42 -4 20 -11 29 -20 25 -25 -9 -57
123 -34 137 17 11 -2 66 -22 62 -8 -1 -15 4 -16 10 0 7 -3 20 -5 28 -16 61
-19 93 -8 99 16 10 2 74 -15 67 -9 -3 -17 9 -25 37 -6 23 -15 52 -20 65 -7 17
-5 24 6 28 16 6 19 31 9 58 -3 9 -10 14 -14 11 -13 -8 -27 17 -40 75 -10 40
-10 55 -1 58 13 4 14 41 2 61 -5 7 -13 11 -19 7 -9 -5 -16 13 -27 64 -2 8 -6
27 -10 43 -5 17 -3 27 4 27 12 0 15 29 5 54 -3 9 -12 16 -20 16 -7 0 -16 12
-20 28 -3 15 -10 42 -16 61 -8 27 -8 35 4 42 21 12 11 60 -14 67 -10 2 -21 16
-24 31 -3 14 -10 42 -15 61 -7 28 -6 37 7 47 12 9 13 16 5 31 -6 11 -7 22 -4
26 3 3 -3 6 -15 6 -15 0 -22 8 -27 30 -4 16 -6 31 -5 32 1 2 -4 16 -10 32 -8
23 -7 31 4 40 20 15 10 66 -13 66 -24 0 -56 129 -35 137 8 3 12 14 10 26 -3
12 -5 25 -5 28 -1 4 -9 9 -19 11 -25 7 -56 125 -36 136 19 11 2 68 -18 64 -21
-3 -48 126 -28 138 18 11 3 71 -18 68 -22 -4 -53 119 -33 131 18 12 4 74 -15
67 -9 -4 -17 8 -25 37 -19 70 -21 90 -8 97 17 11 1 73 -17 66 -9 -3 -17 7 -24
32 -21 82 -23 99 -6 105 12 5 13 12 5 37 -6 16 -17 30 -24 30 -13 0 -28 35
-40 96 -4 22 -2 33 8 37 20 8 9 58 -13 64 -11 3 -22 22 -30 51 -7 26 -14 54
-16 63 -3 9 2 19 9 22 20 8 9 58 -13 64 -24 6 -55 123 -37 138 18 15 9 65 -12
65 -25 0 -56 119 -35 136 19 15 3 70 -19 66 -10 -2 -17 4 -17 13 0 19 1 15
-15 75 -12 44 -11 50 2 50 10 0 13 6 9 16 -3 9 -6 24 -6 34 0 10 -7 17 -16 16
-24 -2 -59 120 -38 132 20 11 8 73 -14 70 -11 -2 -20 15 -32 65 -13 54 -14 67
-3 67 14 0 16 13 7 48 -4 14 -12 21 -20 18 -8 -3 -17 8 -24 32 -20 63 -20 65
-25 60 -3 -3 1 -26 9 -51 l14 -47 -26 -6 c-15 -3 -87 -21 -160 -39 -93 -23
-135 -30 -137 -22 -2 7 -10 37 -18 67 l-14 55 81 22 81 21 -101 1 c-55 1 -103
-2 -106 -5z m425 -204 c4 -19 9 -48 10 -64 l2 -29 -150 -37 c-82 -20 -153 -34
-157 -31 -3 3 -13 32 -21 64 -14 53 -14 59 1 64 33 13 277 71 292 69 8 0 18
-17 23 -36z m46 -198 c24 -86 25 -102 7 -102 -10 0 -81 -16 -158 -35 -78 -20
-142 -34 -144 -33 -8 10 -32 124 -26 129 4 4 63 21 132 37 153 37 163 39 172
41 4 0 12 -16 17 -37z m50 -199 c6 -21 13 -52 15 -69 6 -34 9 -32 -84 -50 -14
-3 -70 -16 -124 -30 -55 -13 -100 -23 -102 -22 -8 10 -32 124 -26 129 6 6 282
77 304 78 4 1 12 -16 17 -36z m46 -185 c14 -64 24 -113 22 -114 -9 -6 -311
-74 -314 -70 -6 5 -34 128 -31 131 2 1 79 19 122 27 3 1 45 11 93 24 48 12 91
23 95 23 4 1 10 -9 13 -21z m69 -294 c4 -19 -8 -24 -151 -58 -111 -27 -158
-35 -166 -27 -6 6 -8 11 -5 11 3 0 0 21 -8 47 -8 25 -14 50 -14 54 0 10 42 22
200 59 l115 27 12 -46 c7 -25 15 -55 17 -67z m53 -220 c-1 -1 -73 -19 -160
-41 l-157 -39 -11 41 c-6 22 -12 53 -13 69 l-1 29 155 37 155 37 17 -66 c9
-36 16 -66 15 -67z m32 -122 c5 -26 13 -54 16 -63 6 -16 -5 -22 -65 -34 -8 -2
-64 -15 -124 -29 -60 -15 -115 -25 -122 -22 -13 5 -40 114 -30 123 7 8 264 71
293 72 18 1 23 -7 32 -47z m52 -216 l16 -65 -146 -35 c-80 -20 -153 -36 -161
-36 -10 0 -20 21 -31 65 l-16 64 141 35 c78 19 150 34 161 35 17 1 23 -10 36
-63z m42 -173 c4 -21 9 -53 13 -70 6 -30 4 -33 -17 -33 -13 0 -84 -16 -157
-34 -73 -19 -134 -31 -136 -27 -8 14 -29 121 -24 126 7 7 268 73 294 74 17 1
23 -6 27 -36z m52 -205 c18 -97 28 -88 -140 -129 -82 -20 -154 -33 -158 -29
-4 4 -10 18 -13 31 -2 13 -8 40 -12 59 l-8 35 145 37 c80 20 153 37 162 37 12
1 19 -12 24 -41z m44 -190 c6 -18 12 -48 13 -67 l3 -35 -130 -32 c-203 -50
-180 -52 -195 14 -7 31 -14 62 -16 67 -3 6 41 21 98 34 57 12 121 29 143 36
62 21 72 18 84 -17z m50 -206 c22 -78 23 -99 9 -100 -11 0 -195 -45 -278 -66
-24 -7 -27 -4 -39 46 -7 29 -15 61 -18 71 -3 11 1 17 14 17 10 1 77 16 148 34
72 19 135 34 142 35 7 0 17 -16 22 -37z m55 -228 c9 -37 16 -68 14 -69 -8 -6
-312 -75 -316 -71 -8 9 -30 126 -23 130 3 2 29 9 56 15 28 7 93 23 145 36 52
13 98 24 101 25 4 0 14 -30 23 -66z m50 -203 c9 -35 15 -65 13 -67 -1 -1 -14
-5 -27 -8 -14 -2 -83 -19 -153 -36 -71 -17 -130 -30 -132 -28 -10 10 -34 123
-27 129 6 6 305 79 308 75 1 0 9 -30 18 -65z m59 -238 l6 -30 -152 -37 c-84
-20 -157 -36 -162 -36 -6 0 -12 12 -13 28 -1 15 -7 39 -13 54 -6 15 -9 33 -7
40 3 7 71 28 159 48 l154 36 11 -36 c6 -20 13 -50 17 -67z m36 -151 c5 -26 13
-54 16 -63 5 -13 -11 -20 -92 -39 -54 -12 -99 -22 -100 -22 -1 0 -24 -6 -49
-14 -59 -18 -81 -18 -81 0 0 7 -6 34 -13 60 -7 26 -10 49 -7 52 8 8 300 81
309 77 3 -2 11 -25 17 -51z m52 -213 c16 -60 16 -61 -5 -70 -27 -11 -265 -69
-286 -69 -21 0 -48 119 -30 130 6 4 64 19 128 33 65 14 128 30 142 35 14 5 27
8 30 5 3 -2 12 -31 21 -64z m50 -203 l15 -65 -41 -10 c-194 -51 -277 -68 -280
-58 -2 7 -10 37 -18 68 l-13 57 115 26 c64 15 124 31 135 35 10 4 31 8 45 9
25 2 28 -2 42 -62z m45 -192 c6 -29 14 -56 18 -62 4 -7 -3 -14 -16 -17 -13 -3
-77 -18 -143 -34 -66 -16 -129 -31 -139 -33 -16 -2 -22 8 -36 62 l-16 65 145
37 c80 20 153 35 161 35 9 -2 19 -22 26 -53z m44 -186 c26 -95 33 -88 -135
-129 -82 -20 -153 -34 -157 -30 -11 10 -37 121 -29 126 8 4 76 22 121 31 14 2
57 13 95 23 95 26 93 26 105 -21z m51 -198 c4 -19 10 -49 14 -66 7 -32 4 -34
-120 -58 -11 -2 -57 -14 -102 -25 -45 -12 -84 -21 -86 -21 -5 0 -31 102 -32
124 0 9 30 20 85 31 14 3 66 16 115 29 50 14 97 24 105 23 8 -1 18 -17 21 -37z
m54 -225 c10 -36 16 -67 14 -69 -2 -2 -65 -17 -139 -35 -74 -17 -145 -34 -157
-37 -19 -5 -23 0 -35 53 -7 32 -13 62 -13 68 0 7 247 75 306 84 4 1 15 -28 24
-64z m59 -241 l7 -30 -157 -38 c-86 -20 -158 -36 -160 -34 -9 10 -33 123 -26
129 4 4 18 10 32 12 14 3 72 16 130 30 156 37 143 38 156 -3 6 -19 14 -49 18
-66z m40 -172 c3 -12 7 -31 11 -41 6 -19 -5 -24 -70 -37 -11 -2 -69 -15 -129
-30 -60 -14 -112 -22 -116 -17 -9 11 -32 115 -26 120 5 6 178 51 221 58 17 3
44 9 60 14 32 8 36 2 49 -67z m49 -194 c8 -35 14 -64 13 -65 -8 -9 -311 -72
-316 -66 -10 10 -32 114 -26 121 8 7 259 69 287 71 24 1 27 -4 42 -61z m52
-214 l12 -53 -106 -26 c-58 -14 -119 -28 -135 -31 -16 -3 -40 -10 -52 -14 -21
-8 -24 -6 -34 28 -18 69 -23 102 -14 103 5 0 74 17 154 37 163 42 154 44 175
-44z m41 -161 c4 -21 8 -51 8 -67 l1 -29 -135 -33 c-170 -42 -180 -44 -178
-36 1 4 -4 33 -11 65 -7 32 -11 61 -8 63 7 7 268 72 293 73 17 1 23 -7 30 -36z
m54 -230 c19 -70 26 -61 -60 -83 -25 -7 -56 -14 -70 -17 -14 -2 -58 -12 -98
-23 -53 -13 -74 -15 -77 -7 -2 7 -8 27 -14 46 -22 70 -18 77 57 95 37 9 76 18
87 21 11 2 43 10 70 18 82 22 86 20 105 -50z m45 -189 c9 -31 14 -62 12 -68
-4 -10 -47 -24 -132 -42 -5 -1 -37 -9 -70 -17 -111 -29 -106 -30 -126 40 -9
35 -14 65 -11 67 9 5 79 24 117 31 17 3 62 14 100 24 39 11 75 20 82 20 6 1
19 -24 28 -55z m44 -182 c6 -21 13 -51 17 -68 l5 -29 -148 -34 c-81 -19 -153
-36 -159 -38 -9 -3 -26 54 -38 124 -1 6 268 79 301 82 7 1 17 -16 22 -37z m56
-227 c10 -36 16 -67 14 -68 -9 -7 -312 -77 -316 -73 -2 2 -7 19 -10 37 -2 18
-9 43 -14 57 -5 14 -6 29 -2 33 7 6 185 51 263 65 13 3 27 7 29 10 12 12 20
-2 36 -61z m60 -246 c5 -26 -6 -31 -120 -55 -5 -1 -30 -7 -55 -14 -25 -7 -54
-14 -65 -16 -11 -2 -32 -6 -46 -9 -24 -5 -27 -2 -38 37 -22 81 -20 91 19 100
19 4 89 21 155 36 l120 29 13 -41 c7 -22 14 -53 17 -67z m34 -137 c6 -20 13
-49 16 -63 l7 -27 -157 -37 c-86 -20 -159 -35 -161 -32 -3 3 -12 31 -20 63
-12 44 -13 59 -3 64 6 4 64 20 128 35 64 14 127 30 141 34 33 11 38 7 49 -37z"/>
<path d="M2852 6848 c21 -84 40 -162 42 -173 2 -11 18 -76 36 -145 17 -69 33
-132 35 -140 12 -57 31 -133 60 -253 19 -75 37 -147 39 -160 3 -12 20 -85 40
-162 42 -169 86 -351 91 -374 4 -17 53 -222 155 -636 34 -137 63 -257 65 -265
2 -8 15 -64 30 -124 15 -59 28 -116 30 -125 2 -9 22 -92 45 -186 23 -93 43
-177 45 -185 4 -19 52 -216 161 -658 46 -189 86 -354 88 -365 3 -12 34 -141
70 -287 35 -146 81 -332 101 -415 20 -82 61 -249 90 -370 30 -121 74 -304 99
-407 95 -390 139 -570 197 -808 33 -135 62 -252 64 -260 2 -8 13 -55 25 -105
12 -50 23 -97 25 -105 2 -8 8 -35 15 -60 7 -25 13 -52 15 -60 2 -13 37 -15
239 -18 223 -2 237 -1 232 15 -4 15 -17 70 -31 133 -2 8 -20 80 -40 160 -20
80 -39 154 -41 165 -2 11 -13 58 -25 105 -11 47 -22 93 -25 103 -2 10 -6 27
-9 37 -3 10 -7 27 -9 37 -7 32 -33 141 -91 377 -31 125 -54 230 -52 232 3 3
254 67 347 89 12 3 116 28 165 39 6 2 21 6 35 9 14 4 111 27 215 53 105 25
309 75 455 110 279 69 505 123 530 129 8 1 35 8 60 15 25 7 53 14 64 16 10 2
53 12 95 23 42 11 87 22 101 24 29 6 178 42 233 57 l37 11 0 230 0 229 -22 -5
c-13 -3 -88 -21 -168 -41 -80 -19 -155 -37 -167 -40 -13 -2 -187 -45 -388 -94
-201 -49 -375 -92 -388 -94 -12 -3 -143 -34 -292 -71 -148 -36 -362 -89 -475
-116 -113 -27 -232 -56 -265 -64 -33 -9 -69 -17 -80 -19 -11 -2 -60 -14 -108
-26 -48 -13 -90 -20 -94 -17 -5 5 -65 239 -77 302 -3 11 -32 133 -66 270 -58
237 -108 442 -115 475 -2 8 -17 71 -34 140 -18 69 -33 134 -35 145 -3 11 -29
121 -60 245 -30 124 -76 308 -100 410 -25 102 -81 334 -126 515 -71 291 -92
378 -105 435 -2 8 -22 89 -44 179 -23 91 -43 174 -46 185 -7 37 -95 401 -100
416 -4 12 19 21 113 44 135 32 650 158 987 241 127 31 266 65 310 75 94 22
215 51 615 150 162 40 331 81 375 92 98 23 73 17 301 73 104 26 200 49 214 51
14 3 105 25 202 50 161 40 209 51 231 53 4 1 7 126 7 280 l0 278 -57 -13 c-32
-8 -67 -16 -78 -18 -11 -2 -121 -29 -245 -59 -124 -31 -310 -76 -415 -102
-104 -25 -282 -69 -395 -96 -113 -28 -212 -52 -220 -54 -8 -2 -35 -8 -60 -14
-25 -7 -55 -14 -67 -16 -12 -3 -102 -25 -200 -50 -98 -24 -189 -46 -203 -48
-14 -3 -32 -8 -40 -11 -8 -3 -26 -7 -40 -10 -23 -4 -119 -27 -730 -177 -113
-28 -212 -52 -220 -54 -8 -2 -35 -8 -60 -14 -25 -7 -54 -14 -66 -16 -11 -3
-103 -25 -205 -49 -101 -25 -184 -44 -185 -43 -2 2 -102 406 -109 437 -2 8
-22 92 -44 185 -23 94 -49 200 -57 238 l-17 67 -236 0 -237 0 38 -152z"/>
</g>
</svg>
